<?xml version="1.0" encoding="UTF-8" standalone="no"?>
<!DOCTYPE svg PUBLIC "-//W3C//DTD SVG 1.1//EN" "http://www.w3.org/Graphics/SVG/1.1/DTD/svg11.dtd">
<svg width="100%" height="100%" viewBox="0 0 24 24" version="1.1" xmlns="http://www.w3.org/2000/svg" xmlns:xlink="http://www.w3.org/1999/xlink" xml:space="preserve" xmlns:serif="http://www.serif.com/" style="fill-rule:evenodd;clip-rule:evenodd;stroke-linejoin:round;stroke-miterlimit:2;">
    <g transform="matrix(0.0108364,0,0,0.0108364,2.84768,1.80207)">
        <g transform="matrix(-0.654396,0.654396,0.654396,0.654396,883.094,-33.7089)">
            <path d="M1468.09,957.983C1426.35,1177.92 1244.11,1344.97 1024,1344.97C773.745,1344.97 572.499,1129.1 570.933,865.011C624.333,837.683 660.924,782.097 660.924,718.032C660.924,626.966 586.99,553.032 495.924,553.032C404.858,553.032 330.924,626.966 330.924,718.032C330.924,782.097 367.515,837.683 420.931,865.019C422.553,1214.11 693.32,1494.97 1024,1494.97C1324.75,1494.97 1575.9,1262.7 1620.15,958.072L1686.84,958.111L1552.08,553.032L1416.84,957.953L1468.09,957.983Z" style="stroke:rgb(37,37,37);stroke-width:19.94px;"/>
        </g>
        <g transform="matrix(0.654396,-0.654396,-0.654396,-0.654396,806.081,1915.86)">
            <path d="M1468.09,957.983C1426.35,1177.92 1244.11,1344.97 1024,1344.97C773.745,1344.97 572.499,1129.1 570.933,865.011C624.333,837.683 660.924,782.097 660.924,718.032C660.924,626.966 586.99,553.032 495.924,553.032C404.858,553.032 330.924,626.966 330.924,718.032C330.924,782.097 367.515,837.683 420.931,865.019C422.553,1214.11 693.32,1494.97 1024,1494.97C1324.75,1494.97 1575.9,1262.7 1620.15,958.072L1686.84,958.111L1552.08,553.032L1416.84,957.953L1468.09,957.983Z" style="stroke:rgb(37,37,37);stroke-width:19.94px;"/>
        </g>
    </g>
</svg>
